<svg width="120" height="120" xmlns="http://www.w3.org/2000/svg">

 <g>
  <title>background</title>
  <rect fill="none" id="canvas_background" height="402" width="582" y="-1" x="-1"/>
 </g>
 <g>
  <title>Layer 1</title>
  <path stroke="#2be080" id="svg_1" fill="#2be080" d="m117,60c0,31.480003 -25.519997,57 -57,57s-57,-25.519997 -57,-57s25.52,-57 57,-57s57,25.52 57,57zm3,0c0,33.137001 -26.862999,60 -60,60s-60,-26.862999 -60,-60s26.863001,-60 60,-60s60,26.863001 60,60zm-62.450001,16.888l29.217999,-28l-5.535995,-5.776001l-26.804001,25.688004l-15.078003,-10.944004l-4.699997,6.474003l17.782997,12.906998l2.705002,1.962997l2.411999,-2.311996z" clip-rule="evenodd" fill-rule="evenodd"/>
 </g>
</svg>